<svg xmlns="http://www.w3.org/2000/svg" viewBox="0 0 322.19 101.54"><defs><style>.cls-1,.cls-5{fill:#fff;}.cls-2{fill:#f25430;}.cls-3{fill:#fc6;}.cls-4{fill:none;}.cls-5{stroke:#fff;stroke-linejoin:round;stroke-width:0.75px;}</style></defs><g id="Layer_2" data-name="Layer 2"><g id="Layer_1-2" data-name="Layer 1"><path class="cls-1" d="M308.27,3.63a7.18,7.18,0,1,0,9.82,2.63A7.19,7.19,0,0,0,308.27,3.63Z"/><path class="cls-1" d="M282,3.63a7.18,7.18,0,1,0,9.82,2.63A7.19,7.19,0,0,0,282,3.63Z"/><path class="cls-2" d="M96.87,9.71h9.36c.42,5.11-1.21,7-7.4,7.25.57.18,1.16.33,1.72.54a7.67,7.67,0,0,1,5.37,7.08,29.62,29.62,0,0,1-.14,5.73c-.49,3.44-2.66,5.62-5.83,6.86a22.63,22.63,0,0,1-7.75,1.19c-1.57,0-3.15.15-4.72.31A1.31,1.31,0,0,0,86.15,40c0,.89.68,1.15,1.4,1.23.94.1,1.88.16,2.82.19,3.24.12,6.5.07,9.72.39a8,8,0,0,1,6.32,3.68,8.94,8.94,0,0,1,.53,8.52c-1.46,3.51-4.43,5.23-8,5.94a37,37,0,0,1-14.79,0,7.32,7.32,0,0,1-4.53-2.43,5.12,5.12,0,0,1,1.8-7.76c1-.48,2-.81,3.07-1.25-3.33-.69-5.62-2.33-5.48-6,.13-3.83,2.79-5.33,6-6.15a25.73,25.73,0,0,1-2.43-1.54A6.8,6.8,0,0,1,80,29.62a38.57,38.57,0,0,1,.24-6.54c.37-2.67,2.21-4.36,4.53-5.57s5.06-1.53,7.7-1.84a21.87,21.87,0,0,0,2.29-.38,2.33,2.33,0,0,0,1.91-2c.15-.9.16-1.82.22-2.73C96.89,10.31,96.87,10,96.87,9.71ZM97.16,27h0c0-.72,0-1.45,0-2.16A3.12,3.12,0,0,0,95.24,22a5.22,5.22,0,0,0-4.64.12,3,3,0,0,0-1.77,2.53c-.09,1.59-.06,3.2,0,4.8a2.56,2.56,0,0,0,1.31,2.09,5.36,5.36,0,0,0,5.08.27A3.07,3.07,0,0,0,97.16,29C97.21,28.33,97.16,27.64,97.16,27ZM93.83,48.61v.07c-.75,0-1.5,0-2.25,0A6.56,6.56,0,0,0,87.47,50a1.89,1.89,0,0,0,0,3.06,3.7,3.7,0,0,0,1.35.76,17.25,17.25,0,0,0,6.52.23,9.64,9.64,0,0,0,3.06-.9,2.3,2.3,0,0,0,1.44-2.48,2.44,2.44,0,0,0-2.31-1.83C96.27,48.71,95.05,48.68,93.83,48.61Z"/><path class="cls-2" d="M8.26,48.14H0V8.52c2.65,0,5.26,0,7.87,0,.22,0,.51.3.63.53,1.9,3.44,3.78,6.9,5.66,10.35q3.16,5.85,6.35,11.68c.09.17.2.32.45.7V8.57h8.21V48.18H23.26c-2.14,0-2.09,0-3.13-2Q14.46,35.78,8.73,25.37c-.1-.19-.22-.37-.47-.76Z"/><path class="cls-2" d="M149.85,43.29l-.69,4.85h-7.57V6.07h8.71v14.3l.15.05c.29-.47.57-1,.89-1.41a8.14,8.14,0,0,1,6.75-3.47,10,10,0,0,1,9.68,5.87,15.33,15.33,0,0,1,1.33,6.13c.07,3.3.09,6.61-.15,9.89a13.11,13.11,0,0,1-3.77,8.91c-2.93,2.8-8.64,3.36-12,1.09A10.27,10.27,0,0,1,149.85,43.29Zm10.65-11a50.63,50.63,0,0,0-.53-5.5,4.67,4.67,0,0,0-7.4-3,5.71,5.71,0,0,0-2.29,4.43c-.13,2.32-.13,4.66,0,7a9.2,9.2,0,0,0,.73,3,4.51,4.51,0,0,0,4.5,2.78c2.35-.15,3.77-1,4.28-3.21A52.31,52.31,0,0,0,160.5,32.32Z"/><path class="cls-2" d="M110.4,6h8.73V20.4a11.19,11.19,0,0,1,3.69-3.77c4-2.35,9.87-1,12.23,2.79a12.24,12.24,0,0,1,1.58,6.46c.05,7.3,0,14.6,0,21.91a2.93,2.93,0,0,1,0,.35h-8.87v-1c0-5.89,0-11.78,0-17.66a15.53,15.53,0,0,0-.47-3.78c-.46-1.76-1.41-2.42-3.45-2.47a3.69,3.69,0,0,0-3.72,2,9.5,9.5,0,0,0-.94,4.59V48.12H110.4Z"/><path class="cls-2" d="M61.66,34.67H42.43c-.35,2.09.38,5.45,2.87,6.46a6.11,6.11,0,0,0,4.92,0A3.37,3.37,0,0,0,52,39.05c.17-.46.3-.94.45-1.42h9.26c-.43,1.42-.72,2.8-1.23,4.08-1.68,4.2-5,6.3-9.32,6.93a21.86,21.86,0,0,1-8.67-.38c-4.49-1.17-7.13-4.15-8.24-8.54a17.54,17.54,0,0,1-.56-4.26A63,63,0,0,1,34,26.33c.89-5.9,5-9.77,11-10.62a16.62,16.62,0,0,1,10.29,1.43,11,11,0,0,1,5.07,5.62,19,19,0,0,1,1.33,7.63ZM53,28.94c.19-2.45-.72-5-2.18-5.74a5.76,5.76,0,0,0-6.09.14c-2,1.27-2.26,3.39-2.35,5.6Z"/><path class="cls-2" d="M172.88,32.35a28.53,28.53,0,0,1,.81-7.92,11.66,11.66,0,0,1,8.18-8.22,16.79,16.79,0,0,1,11.86.66A11.23,11.23,0,0,1,200,24a19,19,0,0,1,.82,6.31c-.07,2.74,0,5.5-.34,8.21a11.5,11.5,0,0,1-9.61,10,21.37,21.37,0,0,1-8.58-.1c-5.58-1.26-8.47-5.13-9.1-10.48C173,36.07,173,34.2,172.88,32.35Zm19.23,0c-.1-1.72-.1-3.33-.32-4.92a4.51,4.51,0,0,0-2.84-4c-3.34-1.23-6.54.57-6.9,4.11A70.19,70.19,0,0,0,181.9,36a6.79,6.79,0,0,0,.82,2.83,4.75,4.75,0,0,0,5.19,2.3,4.67,4.67,0,0,0,3.85-4C192,35.49,192,33.85,192.11,32.32Z"/><path class="cls-2" d="M225.12,37.08h9.1a17.14,17.14,0,0,0,.26,1.77,3.59,3.59,0,0,0,2.76,2.79,6.35,6.35,0,0,0,4.76-.38c1.45-.79,1.93-3.92-.07-4.66-1.68-.62-3.43-1-5.14-1.58a62.18,62.18,0,0,1-6.44-2.12c-3.25-1.44-4.24-4.31-4.18-7.66.1-5.22,3.74-8.61,8.61-9.41a21,21,0,0,1,9.55.43,9.66,9.66,0,0,1,7,7.82,12,12,0,0,1,.2,1.48,4.53,4.53,0,0,1,0,.71h-8.41a8.43,8.43,0,0,0-.62-2.09,4,4,0,0,0-1.52-1.53,5.6,5.6,0,0,0-4.75-.08,2.38,2.38,0,0,0-1.4,2.53,2.21,2.21,0,0,0,1.66,2.15c1.54.47,3.1.83,4.65,1.27,1.78.5,3.59.95,5.33,1.58a7.8,7.8,0,0,1,5.54,7.75,9.78,9.78,0,0,1-4.3,8.93,12.5,12.5,0,0,1-6.08,2,23.49,23.49,0,0,1-8.18-.51,10.31,10.31,0,0,1-8-9C225.23,38.61,225.2,37.9,225.12,37.08Z"/><path class="cls-2" d="M214.12,48.15h-8.91v-32h5.23c1.59,0,1.59,0,1.92,1.6.28,1.38.57,2.76.88,4.3.24-.71.43-1.29.63-1.87a6,6,0,0,1,4.79-4.1c1.54-.3,3.13-.34,4.78-.51v9.8c-1.55,0-3.1-.07-4.64,0-2.75.16-4.18,1.55-4.5,4.28a22.61,22.61,0,0,0-.17,2.73q0,7.41,0,14.82Z"/><path class="cls-2" d="M75,48.15H65.94V16.35A21.44,21.44,0,0,0,75,16.26Z"/><path class="cls-2" d="M70.22,14.28c-.6-.08-1.4-.15-2.19-.3a3.06,3.06,0,0,1-2.64-2.89,13.41,13.41,0,0,1,0-3,3.12,3.12,0,0,1,2.48-2.79,9.75,9.75,0,0,1,5.33,0A3.17,3.17,0,0,1,75.63,8a8.77,8.77,0,0,1,.12,2.23c-.18,2.44-1.26,3.57-3.67,3.93C71.53,14.24,71,14.23,70.22,14.28Z"/><path class="cls-2" d="M123.06,61.21V76l.16.06c.65-.9,1.31-1.8,1.94-2.71,2.71-3.9,5.4-7.81,8.12-11.7a1.06,1.06,0,0,1,.71-.43c3.27,0,6.55,0,10,0-.86,1.23-1.63,2.36-2.42,3.47q-3.84,5.42-7.7,10.79a1.18,1.18,0,0,0-.11,1.36c2.16,4.77,4.29,9.55,6.44,14.32q2,4.42,4,8.85c.11.25.2.5.35.87h-.77c-2.78,0-5.55,0-8.33,0a.94.94,0,0,1-1.07-.64c-1.26-3.07-2.56-6.12-3.85-9.18-1.17-2.77-2.35-5.54-3.59-8.46l-1.68,2.27s0,.11-.07.15c-1.94,1.89-2.3,4.22-2.15,6.83.17,3,0,5.93,0,9h-8.72V61.21Z"/><path class="cls-2" d="M214,58.71h8.7V73.19a28,28,0,0,1,2.09-2.64,8.45,8.45,0,0,1,6.85-2.33c2.3.13,4.45.67,6.06,2.48A9.62,9.62,0,0,1,240,76a38.62,38.62,0,0,1,.27,4.56c0,6.39,0,12.77,0,19.16v1h-8.91v-.94c0-6.36,0-12.72-.05-19.08a8.14,8.14,0,0,0-.39-2.28,3.34,3.34,0,0,0-4-2.57,3.91,3.91,0,0,0-3.81,3.42,18.51,18.51,0,0,0-.4,3.63c0,5.61,0,11.22,0,16.83v1H214Z"/><path class="cls-2" d="M272.47,87.33H253.12c0,2.25.16,4.41,2,5.86a5.69,5.69,0,0,0,5.75.66,3.27,3.27,0,0,0,1.85-2.12c.17-.46.3-.94.45-1.43h9.12a14.56,14.56,0,0,1-1.51,5c-2.17,4.24-6,5.81-10.43,6.14a21.28,21.28,0,0,1-7.1-.54A10.94,10.94,0,0,1,245,92.41a19.15,19.15,0,0,1-.56-4.27c-.07-3.26-.31-6.55.4-9.79a12.48,12.48,0,0,1,10.88-10A16.63,16.63,0,0,1,266,69.78a11,11,0,0,1,5.08,5.6,18,18,0,0,1,1.34,7.22C272.48,84.14,272.47,85.69,272.47,87.33Zm-19.26-5.75h10.57c.14-4.26-1.76-6.5-5.25-6.46C254.74,75.16,253.05,78.05,253.21,81.58Z"/><path class="cls-2" d="M303.13,100.81h-8.95v-1c0-6.47,0-12.94-.08-19.41a4.57,4.57,0,0,0-1.42-3.76,4.2,4.2,0,0,0-6.42,1.76,12.56,12.56,0,0,0-.65,3.9c-.07,5.8,0,11.6,0,17.4v1h-9v-32h2c1.59,0,3.17,0,4.75,0,.58,0,.76.21.84.74.2,1.36.46,2.72.72,4.2.47-.74.85-1.4,1.29-2,2-2.71,4.74-3.59,7.93-3.45A8.59,8.59,0,0,1,300.63,71,10.5,10.5,0,0,1,303,76.93a23.14,23.14,0,0,1,.17,2.49q0,10.41,0,20.82C303.15,100.4,303.14,100.56,303.13,100.81Z"/><path class="cls-2" d="M210,82.33c-3,0-5.78,0-8.55,0l-.67,0c-.08-.91-.12-1.8-.25-2.66-.51-3.47-2.83-4.35-5.77-3.74a4.2,4.2,0,0,0-3.38,3.94,42.12,42.12,0,0,0-.26,5.39,30.78,30.78,0,0,0,.28,4.8,4.09,4.09,0,0,0,3.42,3.69c1.83.35,3.56.13,4.8-1.49a6.29,6.29,0,0,0,1-3.37c.05-.63,0-1.26,0-2h9.18c.07,4.1-.31,8.07-3.46,11.13a12.28,12.28,0,0,1-7,3.22,19.66,19.66,0,0,1-9.83-.76,10.55,10.55,0,0,1-7-8.72,39.74,39.74,0,0,1,0-13.5,11.28,11.28,0,0,1,7.63-9.08,17.48,17.48,0,0,1,12.2,0,10.53,10.53,0,0,1,7.09,8.49C209.76,79.16,209.82,80.69,210,82.33Z"/><path class="cls-2" d="M173.07,68.74h6.57v8h-6.41a2,2,0,0,0-.11.34c0,4.06,0,8.11.1,12.16.06,2.17.9,2.94,3.07,3.14,1.09.11,2.2,0,3.35,0v8.43c-3.34-.08-6.68.3-9.91-.79a6.29,6.29,0,0,1-4.21-4.54,25.5,25.5,0,0,1-.79-7.17c0-3.52,0-7,0-10.57v-1h-4.6V69.29c.83-.15,1.67-.31,2.51-.42a3.09,3.09,0,0,0,2.85-2.69c.25-1.33.41-2.68.61-4,0-.18,0-.37.08-.6h6.91Z"/><path class="cls-2" d="M156.5,100.8h-9.09V69a21.27,21.27,0,0,0,9.09,0Z"/><path class="cls-2" d="M151.93,67c-.93-.16-1.86-.29-2.77-.49A2.59,2.59,0,0,1,147,64.27a14.11,14.11,0,0,1-.15-3.37A3.14,3.14,0,0,1,149.4,58a9.46,9.46,0,0,1,5.55.11A2.86,2.86,0,0,1,157,60.54a12.56,12.56,0,0,1,.09,3.12c-.27,1.93-1.53,2.93-3.7,3.17-.49,0-1,.06-1.49.09Z"/><path class="cls-2" d="M316,28l0,0a5.11,5.11,0,0,0-7-.87c-2,1.68-2.2,4.48.22,7.65h0s.1.1.25.28h0a4.7,4.7,0,0,1,.26,6l7.86-5.52C319.87,32.46,316.65,28.71,316,28Zm-1.6,6h-.07a.33.33,0,0,1-.32-.26A5.49,5.49,0,0,0,311.15,30a.32.32,0,0,1-.17-.43.33.33,0,0,1,.43-.18,6,6,0,0,1,3.2,4.23A.34.34,0,0,1,314.35,34Z"/><path class="cls-1" d="M281.89,9.32a1.15,1.15,0,1,1,.42-1.57A1.14,1.14,0,0,1,281.89,9.32Z"/><path class="cls-3" d="M280.69,1.32a9.85,9.85,0,1,0,13.46,3.6A9.86,9.86,0,0,0,280.69,1.32Zm8.52,14.75a7.18,7.18,0,0,1-9.82-2.63l-.09-.17a3.85,3.85,0,1,0,.19-6.55,3.59,3.59,0,0,0-.49.35,7.08,7.08,0,0,1,3-3.44,7.18,7.18,0,1,1,7.19,12.44Zm-8.47-8.74a1.15,1.15,0,1,1-.42,1.57A1.15,1.15,0,0,1,280.74,7.33Z"/><path class="cls-4" d="M308.27,3.63a7.12,7.12,0,0,0-3,3.4c.1-.06.18-.14.28-.19a3.86,3.86,0,0,1,3.85,6.68,3.89,3.89,0,0,1-3.63.12,7.19,7.19,0,1,0,2.51-10Z"/><path class="cls-3" d="M320.4,4.92a9.86,9.86,0,1,0-3.61,13.46A9.87,9.87,0,0,0,320.4,4.92Zm-4.94,11.15a7.19,7.19,0,0,1-9.7-2.43,3.89,3.89,0,0,0,3.63-.12,3.86,3.86,0,0,0-3.85-6.68c-.1,0-.18.13-.28.19a7.12,7.12,0,0,1,3-3.4,7.18,7.18,0,1,1,7.19,12.44Zm-8.68-8.63a1.15,1.15,0,0,1,1.14,2A1.13,1.13,0,0,1,306.36,9,1.15,1.15,0,0,1,306.78,7.44Z"/><circle class="cls-1" cx="307.35" cy="8.44" r="1.15" transform="translate(90.38 226.29) rotate(-46.69)"/><path class="cls-3" d="M298.74,45.37c-12.93,0-23.45-8.71-23.45-19.4a1.67,1.67,0,1,1,3.33,0c0,8.86,9,16.06,20.12,16.06s20.11-7.2,20.11-16.06a1.67,1.67,0,0,1,3.34,0C322.19,36.66,311.67,45.37,298.74,45.37Z"/><path class="cls-5" d="M314.35,34h-.07a.33.33,0,0,1-.32-.26A5.49,5.49,0,0,0,311.15,30a.32.32,0,0,1-.17-.43.33.33,0,0,1,.43-.18,6,6,0,0,1,3.2,4.23A.34.34,0,0,1,314.35,34Z"/></g></g></svg>