<svg xmlns="http://www.w3.org/2000/svg" viewBox="0 0 265.19 103.4"><defs><style>.cls-1{fill:red;}.cls-2{fill:#282927;}.cls-3{fill:#fff;stroke:#fff;stroke-linejoin:round;stroke-width:0.75px;}</style></defs><g id="Layer_2" data-name="Layer 2"><g id="Layer_1-2" data-name="Layer 1"><path class="cls-1" d="M259,86l0,0a5.11,5.11,0,0,0-7-.86c-2,1.67-2.2,4.47.22,7.64v0s.1.1.25.28h0a4.7,4.7,0,0,1,.26,6l7.86-5.53C262.87,90.49,259.65,86.75,259,86Zm-1.6,6h-.07a.33.33,0,0,1-.32-.27A5.45,5.45,0,0,0,254.15,88a.33.33,0,0,1-.17-.44.32.32,0,0,1,.43-.17,6,6,0,0,1,3.2,4.23A.34.34,0,0,1,257.35,92Z"/><path class="cls-2" d="M96.87,4.75h9.36c.42,5.11-1.21,7-7.4,7.24.57.18,1.16.34,1.72.55a7.66,7.66,0,0,1,5.37,7.08,29.51,29.51,0,0,1-.14,5.72c-.49,3.44-2.66,5.62-5.83,6.87a22.62,22.62,0,0,1-7.75,1.18c-1.57,0-3.15.15-4.72.31A1.32,1.32,0,0,0,86.15,35c0,.9.68,1.15,1.4,1.23.94.11,1.88.16,2.82.2,3.24.12,6.5.07,9.72.39a8,8,0,0,1,6.32,3.68,8.94,8.94,0,0,1,.53,8.52c-1.46,3.5-4.43,5.23-8,5.94a37,37,0,0,1-14.79-.05,7.3,7.3,0,0,1-4.53-2.42,5.14,5.14,0,0,1,1.8-7.77c1-.48,2-.8,3.07-1.25-3.33-.69-5.62-2.33-5.48-6,.13-3.83,2.79-5.32,6-6.14a25.8,25.8,0,0,1-2.43-1.55A6.8,6.8,0,0,1,80,24.65a38.49,38.49,0,0,1,.24-6.53c.37-2.68,2.21-4.36,4.53-5.57s5.06-1.53,7.7-1.84a19.55,19.55,0,0,0,2.29-.39,2.33,2.33,0,0,0,1.91-2,27.16,27.16,0,0,0,.22-2.73C96.89,5.34,96.87,5.05,96.87,4.75ZM97.16,22h0c0-.72,0-1.44,0-2.16A3.13,3.13,0,0,0,95.24,17a5.22,5.22,0,0,0-4.64.12,3,3,0,0,0-1.77,2.53c-.09,1.6-.06,3.2,0,4.8a2.59,2.59,0,0,0,1.31,2.1,5.36,5.36,0,0,0,5.08.26,3,3,0,0,0,1.93-2.78C97.21,23.37,97.16,22.67,97.16,22ZM93.83,43.65v.06c-.75,0-1.5,0-2.25,0A6.5,6.5,0,0,0,87.47,45a1.89,1.89,0,0,0,0,3.06,3.68,3.68,0,0,0,1.35.75,16.85,16.85,0,0,0,6.52.23,9.88,9.88,0,0,0,3.06-.89,2.3,2.3,0,0,0,1.44-2.48,2.42,2.42,0,0,0-2.31-1.83C96.27,43.74,95.05,43.72,93.83,43.65Z"/><path class="cls-2" d="M8.26,43.18H0V3.55c2.65,0,5.26,0,7.87,0,.22,0,.51.29.63.52q2.85,5.18,5.66,10.36l6.35,11.68c.09.16.2.32.45.69V3.6h8.21V43.21H23.26c-2.14,0-2.09,0-3.13-2Q14.46,30.82,8.73,20.41c-.1-.19-.22-.37-.47-.77Z"/><path class="cls-2" d="M149.85,38.32l-.69,4.86h-7.57V1.1h8.71V15.4l.15,0c.29-.47.57-.95.89-1.4a8.08,8.08,0,0,1,6.75-3.47,10,10,0,0,1,9.68,5.87,15.29,15.29,0,0,1,1.33,6.13c.07,3.29.09,6.6-.15,9.89a13.1,13.1,0,0,1-3.77,8.9c-2.93,2.8-8.64,3.37-12,1.1A10.3,10.3,0,0,1,149.85,38.32Zm10.65-11a50.43,50.43,0,0,0-.53-5.49,4.68,4.68,0,0,0-7.4-3,5.74,5.74,0,0,0-2.29,4.43c-.13,2.33-.13,4.66,0,7a9.26,9.26,0,0,0,.73,3,4.51,4.51,0,0,0,4.5,2.77c2.35-.14,3.77-1.05,4.28-3.2A52.83,52.83,0,0,0,160.5,27.35Z"/><path class="cls-2" d="M110.4,1.08h8.73V15.44a11.1,11.1,0,0,1,3.69-3.77c4-2.35,9.87-1,12.23,2.78a12.27,12.27,0,0,1,1.58,6.46c.05,7.31,0,14.61,0,21.91a2.67,2.67,0,0,1,0,.35h-8.87v-1c0-5.88,0-11.77,0-17.66a15.45,15.45,0,0,0-.47-3.77c-.46-1.77-1.41-2.42-3.45-2.47a3.69,3.69,0,0,0-3.72,2,9.51,9.51,0,0,0-.94,4.6V43.15H110.4Z"/><path class="cls-2" d="M61.66,29.71H42.43c-.35,2.08.38,5.45,2.87,6.45a6.11,6.11,0,0,0,4.92,0A3.4,3.4,0,0,0,52,34.09c.17-.47.3-1,.45-1.43h9.26c-.43,1.43-.72,2.8-1.23,4.09-1.68,4.19-5,6.29-9.32,6.92a21.67,21.67,0,0,1-8.67-.38c-4.49-1.17-7.13-4.14-8.24-8.53a17.55,17.55,0,0,1-.56-4.27A63,63,0,0,1,34,21.37c.89-5.9,5-9.78,11-10.62a16.54,16.54,0,0,1,10.29,1.42,11,11,0,0,1,5.07,5.62,19,19,0,0,1,1.33,7.64ZM53,24c.19-2.44-.72-5-2.18-5.73a5.78,5.78,0,0,0-6.09.13c-2,1.27-2.26,3.4-2.35,5.6Z"/><path class="cls-2" d="M172.88,27.39a28.49,28.49,0,0,1,.81-7.92,11.65,11.65,0,0,1,8.18-8.22,16.79,16.79,0,0,1,11.86.65A11.25,11.25,0,0,1,200,19a19,19,0,0,1,.82,6.31c-.07,2.74,0,5.5-.34,8.21a11.51,11.51,0,0,1-9.61,10,21.37,21.37,0,0,1-8.58-.11c-5.58-1.25-8.47-5.12-9.1-10.48C173,31.1,173,29.24,172.88,27.39Zm19.23,0c-.1-1.71-.1-3.33-.32-4.91a4.5,4.5,0,0,0-2.84-4c-3.34-1.24-6.54.57-6.9,4.1A70.36,70.36,0,0,0,181.9,31a6.83,6.83,0,0,0,.82,2.83,4.77,4.77,0,0,0,5.19,2.3,4.67,4.67,0,0,0,3.85-4C192,30.53,192,28.88,192.11,27.35Z"/><path class="cls-2" d="M225.12,32.12h9.1a17.55,17.55,0,0,0,.26,1.77,3.57,3.57,0,0,0,2.76,2.78A6.4,6.4,0,0,0,242,36.3c1.45-.79,1.93-3.92-.07-4.66-1.68-.63-3.43-1.05-5.14-1.58a59.93,59.93,0,0,1-6.44-2.13c-3.25-1.44-4.24-4.31-4.18-7.65.1-5.22,3.74-8.61,8.61-9.41a21,21,0,0,1,9.55.42,9.66,9.66,0,0,1,7,7.82,12.4,12.4,0,0,1,.2,1.49,4.48,4.48,0,0,1,0,.7h-8.41a8.7,8.7,0,0,0-.62-2.09,4.13,4.13,0,0,0-1.52-1.53,5.63,5.63,0,0,0-4.75-.07,2.38,2.38,0,0,0-1.4,2.52,2.2,2.2,0,0,0,1.66,2.15c1.54.48,3.1.84,4.65,1.27,1.78.51,3.59.95,5.33,1.58a7.81,7.81,0,0,1,5.54,7.75,9.81,9.81,0,0,1-4.3,8.94,12.71,12.71,0,0,1-6.08,2,23.49,23.49,0,0,1-8.18-.52,10.31,10.31,0,0,1-8-9C225.23,33.65,225.2,32.93,225.12,32.12Z"/><path class="cls-2" d="M214.12,43.19h-8.91V11.13h5.23c1.59,0,1.59,0,1.92,1.61.28,1.38.57,2.76.88,4.3.24-.72.43-1.3.63-1.87a6,6,0,0,1,4.79-4.1c1.54-.3,3.13-.35,4.78-.51v9.8c-1.55,0-3.1-.07-4.64,0-2.75.17-4.18,1.55-4.5,4.28a22.9,22.9,0,0,0-.17,2.74q0,7.41,0,14.82Z"/><path class="cls-2" d="M75,43.18H65.94V11.39a21.28,21.28,0,0,0,9.09-.1Z"/><path class="cls-2" d="M70.22,9.32c-.6-.08-1.4-.15-2.19-.31a3.06,3.06,0,0,1-2.64-2.89,13.32,13.32,0,0,1,0-3A3.14,3.14,0,0,1,67.88.36a9.94,9.94,0,0,1,5.33,0A3.18,3.18,0,0,1,75.63,3a8.72,8.72,0,0,1,.12,2.22c-.18,2.44-1.26,3.58-3.67,3.93C71.53,9.27,71,9.27,70.22,9.32Z"/><path class="cls-2" d="M21.06,58.24V73l.16.07c.65-.9,1.31-1.8,1.94-2.72,2.71-3.9,5.4-7.8,8.12-11.7a1,1,0,0,1,.71-.42c3.27,0,6.55,0,10,0-.86,1.22-1.63,2.35-2.42,3.47q-3.84,5.4-7.7,10.79a1.18,1.18,0,0,0-.11,1.36c2.16,4.76,4.29,9.54,6.44,14.31q2,4.42,4,8.85c.11.25.2.51.35.88h-.77c-2.78,0-5.55,0-8.33,0a1,1,0,0,1-1.07-.65c-1.26-3.07-2.56-6.12-3.85-9.17-1.17-2.77-2.35-5.54-3.59-8.46-.61.82-1.15,1.54-1.68,2.27,0,0,0,.11-.07.14-1.94,1.9-2.3,4.23-2.15,6.83.17,3,0,5.94,0,9H12.34V58.24Z"/><path class="cls-2" d="M112,55.75h8.7V70.22a29.11,29.11,0,0,1,2.09-2.63,8.45,8.45,0,0,1,6.85-2.33,8.16,8.16,0,0,1,6.06,2.47A9.65,9.65,0,0,1,138,73.07a38.62,38.62,0,0,1,.27,4.56c0,6.38,0,12.77,0,19.16v1h-8.91v-.95c0-6.36,0-12.71-.05-19.07a8.08,8.08,0,0,0-.39-2.28,3.35,3.35,0,0,0-4-2.58,3.91,3.91,0,0,0-3.81,3.43,18.33,18.33,0,0,0-.4,3.62c0,5.61,0,11.22,0,16.83v1H112Z"/><path class="cls-2" d="M170.47,84.36H151.12c0,2.26.16,4.41,2,5.87a5.69,5.69,0,0,0,5.75.66,3.32,3.32,0,0,0,1.85-2.12c.17-.46.3-1,.45-1.44h9.12a14.43,14.43,0,0,1-1.51,5c-2.17,4.24-6,5.82-10.43,6.15a21.81,21.81,0,0,1-7.1-.54A11,11,0,0,1,143,89.44a19.14,19.14,0,0,1-.56-4.26c-.07-3.27-.31-6.56.4-9.79a12.48,12.48,0,0,1,10.88-10A16.56,16.56,0,0,1,164,66.81a11,11,0,0,1,5.08,5.61,18,18,0,0,1,1.34,7.21C170.48,81.18,170.47,82.73,170.47,84.36Zm-19.26-5.75h10.57c.14-4.26-1.76-6.49-5.25-6.46C152.74,72.19,151.05,75.08,151.21,78.61Z"/><path class="cls-2" d="M201.13,97.84h-8.95v-1c0-6.47,0-12.93-.08-19.4a4.57,4.57,0,0,0-1.42-3.76,4.2,4.2,0,0,0-6.42,1.75,12.66,12.66,0,0,0-.65,3.9c-.07,5.8,0,11.6,0,17.41v1h-9v-32h2c1.59,0,3.17,0,4.75,0,.58,0,.76.21.84.74.2,1.36.46,2.71.72,4.2.47-.75.85-1.41,1.29-2,2-2.7,4.74-3.58,7.93-3.44A8.59,8.59,0,0,1,198.63,68,10.56,10.56,0,0,1,201,74a22.78,22.78,0,0,1,.17,2.48q0,10.41,0,20.82C201.15,97.43,201.14,97.6,201.13,97.84Z"/><path class="cls-2" d="M108,79.37H99.45c-.21,0-.43,0-.67,0-.08-.91-.12-1.79-.25-2.66-.51-3.47-2.83-4.34-5.77-3.73a4.19,4.19,0,0,0-3.38,3.94,42,42,0,0,0-.26,5.38,30.71,30.71,0,0,0,.28,4.8,4.1,4.1,0,0,0,3.42,3.7c1.83.34,3.56.13,4.8-1.5a6.29,6.29,0,0,0,1-3.36c0-.63,0-1.27,0-2h9.18c.07,4.11-.31,8.07-3.46,11.14a12.2,12.2,0,0,1-7,3.21,19.54,19.54,0,0,1-9.83-.75,10.57,10.57,0,0,1-7-8.73,39.74,39.74,0,0,1,0-13.5,11.27,11.27,0,0,1,7.63-9.07,17.37,17.37,0,0,1,12.2,0,10.51,10.51,0,0,1,7.09,8.49C107.76,76.19,107.82,77.72,108,79.37Z"/><path class="cls-2" d="M71.07,65.78h6.57v8H71.23a1.72,1.72,0,0,0-.11.34c0,4,0,8.1.1,12.15.06,2.17.9,3,3.07,3.15,1.09.1,2.2,0,3.35,0v8.43c-3.34-.08-6.68.29-9.91-.79a6.32,6.32,0,0,1-4.21-4.55,25.43,25.43,0,0,1-.79-7.16c0-3.52,0-7.05,0-10.58v-1h-4.6V66.32c.83-.14,1.67-.31,2.51-.42a3.07,3.07,0,0,0,2.85-2.69c.25-1.33.41-2.68.61-4,0-.19,0-.38.08-.61h6.91Z"/><path class="cls-2" d="M54.5,97.84H45.41V66a21.27,21.27,0,0,0,9.09,0Z"/><path class="cls-2" d="M49.93,64c-.93-.16-1.86-.28-2.77-.49A2.58,2.58,0,0,1,45,61.3a14,14,0,0,1-.15-3.36A3.16,3.16,0,0,1,47.4,55a9.54,9.54,0,0,1,5.55.12A2.85,2.85,0,0,1,55,57.57a12.64,12.64,0,0,1,.09,3.13c-.27,1.92-1.53,2.92-3.7,3.16-.49.06-1,.07-1.49.09Z"/><path class="cls-2" d="M228.61,77.74a9.86,9.86,0,1,1,9.86-9.85A9.86,9.86,0,0,1,228.61,77.74Zm0-17a7.19,7.19,0,1,0,7.19,7.19A7.19,7.19,0,0,0,228.61,60.7Z"/><path class="cls-2" d="M254.86,77.74a9.86,9.86,0,1,1,9.86-9.85A9.86,9.86,0,0,1,254.86,77.74Zm0-17a7.19,7.19,0,1,0,7.19,7.19A7.19,7.19,0,0,0,254.86,60.7Z"/><path class="cls-2" d="M224.87,62.11A3.86,3.86,0,1,0,228.73,66,3.85,3.85,0,0,0,224.87,62.11Zm.78,3.46a1.16,1.16,0,1,1,1.15-1.15A1.16,1.16,0,0,1,225.65,65.57Z"/><path class="cls-2" d="M250.89,62.11A3.86,3.86,0,1,0,254.75,66,3.86,3.86,0,0,0,250.89,62.11Zm.77,3.44a1.15,1.15,0,1,1,1.15-1.15A1.15,1.15,0,0,1,251.66,65.55Z"/><path class="cls-2" d="M241.74,103.4c-12.93,0-23.45-8.7-23.45-19.4a1.67,1.67,0,0,1,3.33,0c0,8.86,9,16.07,20.12,16.07S261.85,92.86,261.85,84a1.67,1.67,0,0,1,3.34,0C265.19,94.7,254.67,103.4,241.74,103.4Z"/><path class="cls-3" d="M257.35,92h-.07a.33.33,0,0,1-.32-.27A5.45,5.45,0,0,0,254.15,88a.33.33,0,0,1-.17-.44.32.32,0,0,1,.43-.17,6,6,0,0,1,3.2,4.23A.34.34,0,0,1,257.35,92Z"/></g></g></svg>